<svg width="264" height="319" viewBox="0 0 264 319" fill="none" xmlns="http://www.w3.org/2000/svg">
<g clip-path="url(#clip0_10076_10033)">
<path d="M224.311 97.0128C226.396 94.0867 230.778 89.1407 233.787 91.4454C234.579 92.041 234.025 93.0768 233.286 93.3616C232.124 93.8277 230.989 94.2161 230.144 95.2001C230.144 95.2001 230.144 95.226 230.118 95.2519C234.896 94.7599 240.729 94.993 243.686 98.178C245.428 100.042 244.029 100.975 241.785 99.913C237.456 97.8673 235.925 98.8772 240.307 101.26C241.574 101.959 238.222 103.59 236.11 102.736C234.104 102.787 232.362 105.506 231.728 105.843C230.012 106.775 226.079 106.18 224.021 105.636C222.331 105.196 220.879 105.843 219.929 104.315C218.451 101.907 221.592 98.7736 224.311 96.9869V97.0128Z" fill="#FF6B79"/>
<path d="M182.035 113.037C194.985 115.276 202.311 115.771 222.922 106.604L222.174 98.0892C222.174 98.0892 198.802 98.2975 181.055 88.6624C177.779 86.8656 169.111 77.7774 164.88 72.5952C156.806 62.6737 142.876 44.2368 131.216 48.3773C96.6754 60.6425 154.768 108.349 182.035 113.037Z" fill="#FFAE00"/>
<path d="M167.023 140.656C167.023 140.656 166.658 182.302 159.151 228.661C153.625 262.831 142.885 304.477 142.885 304.477L134.152 304.867C134.152 304.867 129.564 255.122 127.609 226.135C125.733 198.527 117.86 145.787 117.86 145.787L167.023 140.656Z" fill="#331B6C"/>
<path d="M125.95 143.531C125.95 143.531 145.336 162.19 144.923 208.891C144.562 249.597 131.965 287.046 131.965 287.046C131.965 287.046 128.815 237.401 126.879 215.901C125.253 198.024 118.051 145.668 118.051 145.668L125.924 143.531H125.95Z" fill="#1F0D52"/>
<path d="M141.552 307.589C141.552 307.589 163.416 307.589 167.695 319.003H132.008C132.008 319.003 129.103 310.987 135.302 307.908C135.302 307.908 137.817 310.111 141.552 307.562V307.589Z" fill="#060673"/>
<path d="M125.393 137.455C125.393 137.455 131.401 202.424 116.715 227.974C102.08 253.497 58.587 280.637 58.587 280.637L52.5277 275.866C52.5277 275.866 77.8688 236.212 84.4672 211.34C88.8832 194.681 69.4474 157.556 76.662 140.714C78.6133 136.177 125.367 137.455 125.367 137.455H125.393Z" fill="#331B6C"/>
<path d="M54.7712 283.201C54.7712 283.201 68.5798 301.689 62.3723 312.268L40.4051 282.913C40.4051 282.913 44.8391 275.554 51.0213 278.749C51.0213 278.749 50.5146 281.682 54.7712 283.201Z" fill="#060673"/>
<path d="M57.4375 285.884C57.4375 285.884 59.5299 286.684 60.3464 284.439C60.3464 284.439 61.6478 283.588 61.954 282.943C62.2602 282.272 52.3852 271.669 50.4969 272.623C48.6087 273.578 49.2721 274.945 49.2721 274.945C49.2721 274.945 47.0521 274.816 48.0983 276.39C49.17 277.964 52.9465 283.717 57.4375 285.884Z" fill="#6460F2"/>
<path d="M165 143.281C165 143.281 137.403 140.688 75.7279 146.712C75.7279 146.712 68.6543 40.7521 123.281 43.1091C156.61 44.5494 163.864 85.011 165 143.281Z" fill="#FFAE00"/>
<path d="M130.656 44.1168C130.656 44.1168 126.828 51.0436 115.166 43.8325C115.166 43.8325 117.54 37.5259 115.677 30.9609L127.543 33.8816C127.543 33.8816 126.395 38.3789 130.656 44.1168Z" fill="#FF5464"/>
<path d="M119.422 6.92328C113.208 8.30261 109.72 16.5786 111.661 25.3851C113.575 34.1917 120.183 40.213 126.397 38.8336C132.611 37.4543 136.099 29.1783 134.159 20.3718C132.244 11.5653 125.637 5.54395 119.422 6.92328Z" fill="#FF6B79"/>
<path d="M130.629 20.1875C130.629 20.1875 134.678 25.1701 135.969 28.0849C136.171 28.5333 135.918 29.0316 135.462 29.1811C134.02 29.6046 131.135 30.352 129.895 30.2772C128.225 30.1776 130.629 20.2124 130.629 20.2124V20.1875Z" fill="#FF6B79"/>
<path d="M130.543 13.1773C130.543 13.1773 132.987 16.7716 133.344 18.8472C133.344 18.8472 125.298 18.7459 120.435 17.7841C113.739 16.4679 112.466 16.0882 112.466 16.0882L113.23 11.0005L129.245 7.40625L130.543 13.152V13.1773Z" fill="#FF3D53"/>
<path d="M117.222 3.18947C121.967 6.7929 129.668 3.37359 131.249 12.4479C131.923 16.288 128.138 16.1828 125.156 14.5784C122.174 12.9739 118.051 12.7635 117.066 15.9724C116.081 19.1813 113.306 19.1024 113.306 19.1024C111.517 22.7584 113.021 26.5197 114.162 32.3062C109.754 32.4114 106.72 23.7053 105.787 18.2081C105.035 13.7104 112.865 -0.0720191 117.196 3.18947H117.222Z" fill="#060673"/>
<path d="M114.702 22.1329C114.702 22.1329 112.573 19.6441 110.96 21.625C109.346 23.6058 111.825 29.9294 114.585 27.8469C117.344 25.7645 114.678 22.1329 114.678 22.1329H114.702Z" fill="#FF6B79"/>
<path d="M130.508 43.4862C127.049 47.4901 119.311 45.5284 115.647 42.6532C114.315 41.632 113.059 43.943 114.366 44.9641C119.004 48.5918 128.048 50.3653 132.327 45.3941C133.429 44.1042 131.635 42.1963 130.508 43.4862Z" fill="#FFB000"/>
<path d="M144.934 308.464C144.934 308.464 146.9 307.443 145.813 305.376C145.813 305.376 146.072 303.832 145.813 303.177C145.555 302.523 131.354 302.758 130.785 304.774C130.216 306.789 131.639 307.234 131.639 307.234C131.639 307.234 130.087 308.778 131.923 309.066C133.76 309.328 140.407 310.349 144.96 308.49L144.934 308.464Z" fill="#6460F2"/>
<path fill-rule="evenodd" clip-rule="evenodd" d="M133.318 13.3659C133.318 13.3659 133.524 -0.450644 117.196 0.74526C105.169 1.61038 105.736 15.4778 105.736 15.4778C105.736 15.4778 132.056 14.7653 133.344 13.3659H133.318Z" fill="#FFD400"/>
<path fill-rule="evenodd" clip-rule="evenodd" d="M105.732 15.3667C105.732 15.3667 126.157 16.1715 133.344 13.4021L133.138 11.4375C133.138 11.4375 115.519 14.988 105.757 13.4495V15.3667H105.732Z" fill="#FFB000"/>
<path fill-rule="evenodd" clip-rule="evenodd" d="M132 11.1973C132 11.1973 131.288 5.01034 125.316 1.16574C125.316 1.16574 121.479 -1.07482 115.837 0.656523C115.837 0.656523 125.875 7.5055 126.892 12.1139L132 11.1973Z" fill="#FFB000"/>
<path fill-rule="evenodd" clip-rule="evenodd" d="M133.725 13.4609C133.725 13.4609 140.86 14.5998 140.007 15.6592C137.81 18.4138 124.806 17.7516 116.507 15.7917C116.507 15.7917 130.597 14.4674 133.725 13.4609Z" fill="#FFD400"/>
<path d="M114.239 44.8867C114.239 44.8867 123.878 59.1842 122.891 78.9184C122.891 78.9184 136.558 79.9117 142.534 77.9513C142.534 77.9513 140.143 58.8444 134.921 45.4618C134.921 45.4618 139.598 46.4812 140.949 48.2847C140.949 48.2847 149.393 64.4641 151.992 79.4935C154.59 94.5228 162.255 95.699 162.255 95.699C162.255 95.699 167.321 133.521 167.01 142.878C167.01 142.878 124.398 160.835 74.0953 146.616C74.0953 146.616 73.8095 115.851 76.1999 106.703C76.1999 106.703 96.3365 103.436 104.781 94.0785C113.225 84.7211 115.668 68.9337 109.12 45.7493C109.12 45.7493 111.588 43.4491 114.265 44.8867H114.239Z" fill="#331B6C"/>
<path d="M145.09 93.5469C145.09 93.5469 129.483 97.9988 118.854 93.5469C118.854 93.5469 118.128 111.565 118.854 114.489C119.606 117.413 133.035 121.813 136.457 121.813C139.879 121.813 148.149 114.489 148.149 114.489C148.149 114.489 148.563 102.187 145.09 93.5469Z" fill="#5F40D5"/>
<path d="M254.453 69.7847L222.354 48.5349C220.773 47.4887 218.656 47.9298 217.624 49.5201L185.085 99.6673C184.053 101.258 184.497 103.395 186.078 104.441L218.177 125.691C219.757 126.737 221.875 126.296 222.907 124.706L255.446 74.5585C256.478 72.9682 256.033 70.8309 254.453 69.7847Z" fill="#A615AC"/>
<path d="M228.567 72.0966C228.001 73.0505 228.078 74.1378 228.735 74.5486C229.392 74.9595 230.394 74.5005 230.952 73.5581C231.517 72.6042 231.441 71.5169 230.783 71.106C230.119 70.7067 229.125 71.1542 228.567 72.0966Z" fill="#614CD4"/>
<path d="M237.584 108.192C237.636 108.057 237.584 107.895 237.532 107.76C238.134 107.868 238.816 107.868 239.261 107.436C239.838 106.869 239.733 105.924 239.654 105.223C239.654 105.196 239.654 105.169 239.654 105.142C240.964 105.546 242.353 105.573 243.113 104.386C243.847 103.279 243.401 102.172 242.589 101.255C243.087 101.363 243.558 101.417 244.004 101.39C245.838 101.309 246.074 99.0141 245.602 97.5295C245.524 97.2865 245.366 97.1516 245.209 97.1516C245.183 97.0976 245.157 97.0706 245.104 97.0436C244.082 96.2338 242.982 95.532 241.777 95.0191C240.964 94.6682 239.785 94.0473 238.842 94.2633C237.139 94.6412 237.767 96.6927 238.344 97.9614C237.27 97.2056 236.038 96.8277 235.278 98.5552C234.754 99.7159 234.859 100.823 235.278 101.767C234.676 101.524 234.073 101.39 233.496 101.497C231.977 101.74 232.239 103.765 232.71 104.818C232.946 105.331 233.234 105.762 233.601 106.113C233.496 106.113 233.392 106.167 233.287 106.248C232.448 106.815 232.736 108.327 233.103 109.002C234.125 111.08 236.877 110.756 237.61 108.273L237.584 108.192Z" fill="#FF6B79"/>
<path d="M43.0343 155.106C43.3258 160.131 42.8222 167.957 38.4492 171.019C36.3289 172.485 35.5603 171.019 36.9119 168.951C39.5093 164.947 38.6877 163.298 35.7193 167.329C34.8712 168.506 31.4257 171.202 30.6306 170.653C28.9609 169.501 33.599 164.999 34.7122 163.01C34.8977 161.021 30.1271 166.229 28.8549 166.098C25.966 165.837 32.3534 158.979 32.0883 158.325C31.3462 156.519 28.2718 163.848 27.0262 160.838C26.1251 158.639 32.4329 152.724 33.228 150.787C33.8906 149.191 33.387 147.673 35.0832 146.94C38.8202 145.291 42.9017 153.012 43.0343 155.132V155.106Z" fill="#FF6B79"/>
<path d="M40.828 150.992C39.7912 150.18 38.6247 151.594 39.2209 152.537C39.532 153.951 40.0245 155.207 41.0872 156.229C41.7093 156.805 42.461 157.223 43.0312 157.852C43.9125 158.821 44.1458 159.973 44.4828 161.177C44.6902 161.91 45.6492 162.591 46.3232 161.91C49.3818 158.821 43.0312 152.72 40.828 150.966V150.992Z" fill="#FF6B79"/>
<path d="M107.346 47.1094C61.0497 53.7238 39.6982 85.9331 35.6948 97.3319C27.2773 121.332 28.0472 132.705 31.0498 151.424L41.6485 149.672C41.6485 149.672 43.291 131.031 57.2516 107.423C64.9761 94.3515 92.0505 86.7959 92.0505 86.7959C111.708 70.8742 107.346 47.1355 107.346 47.1355V47.1094Z" fill="#FFAE00"/>
</g>
<defs>
<clipPath id="clip0_10076_10033">
<rect width="264" height="319" fill="white" transform="matrix(-1 0 0 1 264 0)"/>
</clipPath>
</defs>
</svg>
